<mxfile host="app.diagrams.net" agent="Mozilla/5.0 (Windows NT 10.0; Win64; x64) AppleWebKit/537.36 (KHTML, like Gecko) Chrome/133.0.0.0 Safari/537.36 OPR/118.0.0.0" version="26.2.14">
  <diagram name="Pagina-1" id="Kv2xIKdpE46pLU4eL4Tt">
    <mxGraphModel dx="3324" dy="1017" grid="1" gridSize="10" guides="1" tooltips="1" connect="1" arrows="1" fold="1" page="1" pageScale="1" pageWidth="827" pageHeight="1169" background="none" math="0" shadow="0">
      <root>
        <mxCell id="0" />
        <mxCell id="1" parent="0" />
        <mxCell id="UK86mSe1ED0umMSQW7se-75" style="edgeStyle=orthogonalEdgeStyle;rounded=0;orthogonalLoop=1;jettySize=auto;html=1;entryX=0.5;entryY=0;entryDx=0;entryDy=0;" edge="1" parent="1" source="UK86mSe1ED0umMSQW7se-1" target="UK86mSe1ED0umMSQW7se-9">
          <mxGeometry relative="1" as="geometry">
            <Array as="points">
              <mxPoint x="620" y="90" />
              <mxPoint x="-9" y="90" />
            </Array>
          </mxGeometry>
        </mxCell>
        <mxCell id="UK86mSe1ED0umMSQW7se-76" style="edgeStyle=orthogonalEdgeStyle;rounded=0;orthogonalLoop=1;jettySize=auto;html=1;entryX=0.5;entryY=0;entryDx=0;entryDy=0;" edge="1" parent="1" source="UK86mSe1ED0umMSQW7se-1" target="UK86mSe1ED0umMSQW7se-6">
          <mxGeometry relative="1" as="geometry">
            <Array as="points">
              <mxPoint x="620" y="90" />
              <mxPoint x="405" y="90" />
            </Array>
          </mxGeometry>
        </mxCell>
        <mxCell id="UK86mSe1ED0umMSQW7se-77" style="edgeStyle=orthogonalEdgeStyle;rounded=0;orthogonalLoop=1;jettySize=auto;html=1;entryX=0.5;entryY=0;entryDx=0;entryDy=0;" edge="1" parent="1" source="UK86mSe1ED0umMSQW7se-1" target="UK86mSe1ED0umMSQW7se-10">
          <mxGeometry relative="1" as="geometry">
            <Array as="points">
              <mxPoint x="620" y="90" />
              <mxPoint x="841" y="90" />
            </Array>
          </mxGeometry>
        </mxCell>
        <mxCell id="UK86mSe1ED0umMSQW7se-78" style="edgeStyle=orthogonalEdgeStyle;rounded=0;orthogonalLoop=1;jettySize=auto;html=1;entryX=0.5;entryY=0;entryDx=0;entryDy=0;" edge="1" parent="1" source="UK86mSe1ED0umMSQW7se-1" target="UK86mSe1ED0umMSQW7se-69">
          <mxGeometry relative="1" as="geometry">
            <Array as="points">
              <mxPoint x="620" y="90" />
              <mxPoint x="1241" y="90" />
            </Array>
          </mxGeometry>
        </mxCell>
        <mxCell id="UK86mSe1ED0umMSQW7se-90" style="edgeStyle=orthogonalEdgeStyle;rounded=0;orthogonalLoop=1;jettySize=auto;html=1;entryX=0.5;entryY=0;entryDx=0;entryDy=0;" edge="1" parent="1" source="UK86mSe1ED0umMSQW7se-1" target="UK86mSe1ED0umMSQW7se-83">
          <mxGeometry relative="1" as="geometry">
            <Array as="points">
              <mxPoint x="620" y="90" />
              <mxPoint x="-352" y="90" />
            </Array>
          </mxGeometry>
        </mxCell>
        <mxCell id="UK86mSe1ED0umMSQW7se-1" value="AGV Robot" style="rounded=1;whiteSpace=wrap;html=1;" vertex="1" parent="1">
          <mxGeometry x="555" y="40" width="130" height="30" as="geometry" />
        </mxCell>
        <mxCell id="UK86mSe1ED0umMSQW7se-31" value="" style="edgeStyle=orthogonalEdgeStyle;rounded=0;orthogonalLoop=1;jettySize=auto;html=1;" edge="1" parent="1" source="UK86mSe1ED0umMSQW7se-6" target="UK86mSe1ED0umMSQW7se-30">
          <mxGeometry relative="1" as="geometry" />
        </mxCell>
        <mxCell id="UK86mSe1ED0umMSQW7se-32" value="" style="edgeStyle=orthogonalEdgeStyle;rounded=0;orthogonalLoop=1;jettySize=auto;html=1;" edge="1" parent="1" source="UK86mSe1ED0umMSQW7se-6" target="UK86mSe1ED0umMSQW7se-30">
          <mxGeometry relative="1" as="geometry" />
        </mxCell>
        <mxCell id="UK86mSe1ED0umMSQW7se-33" value="" style="edgeStyle=orthogonalEdgeStyle;rounded=0;orthogonalLoop=1;jettySize=auto;html=1;" edge="1" parent="1" source="UK86mSe1ED0umMSQW7se-6" target="UK86mSe1ED0umMSQW7se-30">
          <mxGeometry relative="1" as="geometry" />
        </mxCell>
        <mxCell id="UK86mSe1ED0umMSQW7se-35" style="edgeStyle=orthogonalEdgeStyle;rounded=0;orthogonalLoop=1;jettySize=auto;html=1;entryX=0.5;entryY=0;entryDx=0;entryDy=0;" edge="1" parent="1" source="UK86mSe1ED0umMSQW7se-6" target="UK86mSe1ED0umMSQW7se-34">
          <mxGeometry relative="1" as="geometry" />
        </mxCell>
        <mxCell id="UK86mSe1ED0umMSQW7se-6" value="Pakketdetectie" style="whiteSpace=wrap;html=1;rounded=1;" vertex="1" parent="1">
          <mxGeometry x="347.5" y="130" width="115" height="35" as="geometry" />
        </mxCell>
        <mxCell id="UK86mSe1ED0umMSQW7se-51" style="edgeStyle=orthogonalEdgeStyle;rounded=0;orthogonalLoop=1;jettySize=auto;html=1;entryX=0.5;entryY=0;entryDx=0;entryDy=0;" edge="1" parent="1" source="UK86mSe1ED0umMSQW7se-9" target="UK86mSe1ED0umMSQW7se-25">
          <mxGeometry relative="1" as="geometry" />
        </mxCell>
        <mxCell id="UK86mSe1ED0umMSQW7se-52" style="edgeStyle=orthogonalEdgeStyle;rounded=0;orthogonalLoop=1;jettySize=auto;html=1;entryX=0.5;entryY=0;entryDx=0;entryDy=0;" edge="1" parent="1" source="UK86mSe1ED0umMSQW7se-9" target="UK86mSe1ED0umMSQW7se-26">
          <mxGeometry relative="1" as="geometry" />
        </mxCell>
        <mxCell id="UK86mSe1ED0umMSQW7se-9" value="Voortbeweging" style="whiteSpace=wrap;html=1;rounded=1;" vertex="1" parent="1">
          <mxGeometry x="-67" y="130" width="115" height="35" as="geometry" />
        </mxCell>
        <mxCell id="UK86mSe1ED0umMSQW7se-56" style="edgeStyle=orthogonalEdgeStyle;rounded=0;orthogonalLoop=1;jettySize=auto;html=1;entryX=0.5;entryY=0;entryDx=0;entryDy=0;" edge="1" parent="1" source="UK86mSe1ED0umMSQW7se-10" target="UK86mSe1ED0umMSQW7se-41">
          <mxGeometry relative="1" as="geometry">
            <Array as="points">
              <mxPoint x="841" y="190" />
              <mxPoint x="691" y="190" />
            </Array>
          </mxGeometry>
        </mxCell>
        <mxCell id="UK86mSe1ED0umMSQW7se-57" style="edgeStyle=orthogonalEdgeStyle;rounded=0;orthogonalLoop=1;jettySize=auto;html=1;entryX=0.5;entryY=0;entryDx=0;entryDy=0;" edge="1" parent="1" source="UK86mSe1ED0umMSQW7se-10" target="UK86mSe1ED0umMSQW7se-44">
          <mxGeometry relative="1" as="geometry" />
        </mxCell>
        <mxCell id="UK86mSe1ED0umMSQW7se-58" style="edgeStyle=orthogonalEdgeStyle;rounded=0;orthogonalLoop=1;jettySize=auto;html=1;entryX=0.5;entryY=0;entryDx=0;entryDy=0;" edge="1" parent="1" source="UK86mSe1ED0umMSQW7se-10" target="UK86mSe1ED0umMSQW7se-46">
          <mxGeometry relative="1" as="geometry">
            <Array as="points">
              <mxPoint x="841" y="190" />
              <mxPoint x="991" y="190" />
            </Array>
          </mxGeometry>
        </mxCell>
        <mxCell id="UK86mSe1ED0umMSQW7se-10" value="Veiligheid" style="whiteSpace=wrap;html=1;rounded=1;" vertex="1" parent="1">
          <mxGeometry x="783" y="130" width="115" height="35" as="geometry" />
        </mxCell>
        <mxCell id="UK86mSe1ED0umMSQW7se-53" style="edgeStyle=orthogonalEdgeStyle;rounded=0;orthogonalLoop=1;jettySize=auto;html=1;entryX=0.5;entryY=0;entryDx=0;entryDy=0;" edge="1" parent="1" source="UK86mSe1ED0umMSQW7se-25" target="UK86mSe1ED0umMSQW7se-37">
          <mxGeometry relative="1" as="geometry" />
        </mxCell>
        <mxCell id="UK86mSe1ED0umMSQW7se-54" style="edgeStyle=orthogonalEdgeStyle;rounded=0;orthogonalLoop=1;jettySize=auto;html=1;entryX=0.5;entryY=0;entryDx=0;entryDy=0;" edge="1" parent="1" source="UK86mSe1ED0umMSQW7se-25" target="UK86mSe1ED0umMSQW7se-39">
          <mxGeometry relative="1" as="geometry" />
        </mxCell>
        <mxCell id="UK86mSe1ED0umMSQW7se-25" value="Keerfunctie" style="whiteSpace=wrap;html=1;rounded=1;" vertex="1" parent="1">
          <mxGeometry x="-147" y="230" width="115" height="35" as="geometry" />
        </mxCell>
        <mxCell id="UK86mSe1ED0umMSQW7se-26" value="Navigatie" style="whiteSpace=wrap;html=1;rounded=1;" vertex="1" parent="1">
          <mxGeometry x="23" y="230" width="115" height="35" as="geometry" />
        </mxCell>
        <mxCell id="UK86mSe1ED0umMSQW7se-60" value="" style="edgeStyle=orthogonalEdgeStyle;rounded=0;orthogonalLoop=1;jettySize=auto;html=1;" edge="1" parent="1" source="UK86mSe1ED0umMSQW7se-30" target="UK86mSe1ED0umMSQW7se-59">
          <mxGeometry relative="1" as="geometry" />
        </mxCell>
        <mxCell id="UK86mSe1ED0umMSQW7se-64" style="edgeStyle=orthogonalEdgeStyle;rounded=0;orthogonalLoop=1;jettySize=auto;html=1;entryX=0.5;entryY=0;entryDx=0;entryDy=0;" edge="1" parent="1" source="UK86mSe1ED0umMSQW7se-30" target="UK86mSe1ED0umMSQW7se-61">
          <mxGeometry relative="1" as="geometry" />
        </mxCell>
        <mxCell id="UK86mSe1ED0umMSQW7se-30" value="Pakketscannen" style="whiteSpace=wrap;html=1;rounded=1;" vertex="1" parent="1">
          <mxGeometry x="250" y="230" width="115" height="35" as="geometry" />
        </mxCell>
        <mxCell id="UK86mSe1ED0umMSQW7se-34" value="Stop- en signaalactie" style="whiteSpace=wrap;html=1;rounded=1;" vertex="1" parent="1">
          <mxGeometry x="440" y="230" width="115" height="35" as="geometry" />
        </mxCell>
        <mxCell id="UK86mSe1ED0umMSQW7se-37" value="Bocht draaien" style="whiteSpace=wrap;html=1;rounded=1;" vertex="1" parent="1">
          <mxGeometry x="-217" y="360" width="115" height="35" as="geometry" />
        </mxCell>
        <mxCell id="UK86mSe1ED0umMSQW7se-39" value="Snelheidaanpassing" style="whiteSpace=wrap;html=1;rounded=1;" vertex="1" parent="1">
          <mxGeometry x="-67" y="360" width="115" height="35" as="geometry" />
        </mxCell>
        <mxCell id="UK86mSe1ED0umMSQW7se-41" value="Noodstop" style="whiteSpace=wrap;html=1;rounded=1;" vertex="1" parent="1">
          <mxGeometry x="633" y="230" width="115" height="35" as="geometry" />
        </mxCell>
        <mxCell id="UK86mSe1ED0umMSQW7se-44" value="Geluidswaarschuwing" style="whiteSpace=wrap;html=1;rounded=1;" vertex="1" parent="1">
          <mxGeometry x="771.75" y="230" width="137.5" height="35" as="geometry" />
        </mxCell>
        <mxCell id="UK86mSe1ED0umMSQW7se-46" value="Voortbeweging" style="whiteSpace=wrap;html=1;rounded=1;" vertex="1" parent="1">
          <mxGeometry x="933" y="230" width="115" height="35" as="geometry" />
        </mxCell>
        <mxCell id="UK86mSe1ED0umMSQW7se-59" value="Verschil type pakket herkennen" style="whiteSpace=wrap;html=1;rounded=1;" vertex="1" parent="1">
          <mxGeometry x="90" y="360" width="180" height="35" as="geometry" />
        </mxCell>
        <mxCell id="UK86mSe1ED0umMSQW7se-80" value="" style="edgeStyle=orthogonalEdgeStyle;rounded=0;orthogonalLoop=1;jettySize=auto;html=1;" edge="1" parent="1" source="UK86mSe1ED0umMSQW7se-61" target="UK86mSe1ED0umMSQW7se-79">
          <mxGeometry relative="1" as="geometry" />
        </mxCell>
        <mxCell id="UK86mSe1ED0umMSQW7se-82" style="edgeStyle=orthogonalEdgeStyle;rounded=0;orthogonalLoop=1;jettySize=auto;html=1;" edge="1" parent="1" source="UK86mSe1ED0umMSQW7se-61" target="UK86mSe1ED0umMSQW7se-81">
          <mxGeometry relative="1" as="geometry" />
        </mxCell>
        <mxCell id="UK86mSe1ED0umMSQW7se-61" value="Pakket gewicht detecteren" style="whiteSpace=wrap;html=1;rounded=1;" vertex="1" parent="1">
          <mxGeometry x="360" y="360" width="154" height="35" as="geometry" />
        </mxCell>
        <mxCell id="UK86mSe1ED0umMSQW7se-72" value="" style="edgeStyle=orthogonalEdgeStyle;rounded=0;orthogonalLoop=1;jettySize=auto;html=1;" edge="1" parent="1" source="UK86mSe1ED0umMSQW7se-69" target="UK86mSe1ED0umMSQW7se-71">
          <mxGeometry relative="1" as="geometry" />
        </mxCell>
        <mxCell id="UK86mSe1ED0umMSQW7se-74" style="edgeStyle=orthogonalEdgeStyle;rounded=0;orthogonalLoop=1;jettySize=auto;html=1;entryX=0.5;entryY=0;entryDx=0;entryDy=0;" edge="1" parent="1" source="UK86mSe1ED0umMSQW7se-69" target="UK86mSe1ED0umMSQW7se-73">
          <mxGeometry relative="1" as="geometry" />
        </mxCell>
        <mxCell id="UK86mSe1ED0umMSQW7se-69" value="Module wisseling" style="whiteSpace=wrap;html=1;rounded=1;" vertex="1" parent="1">
          <mxGeometry x="1183" y="130" width="115" height="35" as="geometry" />
        </mxCell>
        <mxCell id="UK86mSe1ED0umMSQW7se-71" value="Herken modulewisseling" style="whiteSpace=wrap;html=1;rounded=1;" vertex="1" parent="1">
          <mxGeometry x="1070" y="230" width="150" height="35" as="geometry" />
        </mxCell>
        <mxCell id="UK86mSe1ED0umMSQW7se-73" value="Wissel gedrag" style="whiteSpace=wrap;html=1;rounded=1;" vertex="1" parent="1">
          <mxGeometry x="1280" y="230" width="115" height="35" as="geometry" />
        </mxCell>
        <mxCell id="UK86mSe1ED0umMSQW7se-79" value="Duw pakket" style="whiteSpace=wrap;html=1;rounded=1;" vertex="1" parent="1">
          <mxGeometry x="250" y="475" width="154" height="35" as="geometry" />
        </mxCell>
        <mxCell id="UK86mSe1ED0umMSQW7se-81" value="Lees sensor" style="whiteSpace=wrap;html=1;rounded=1;" vertex="1" parent="1">
          <mxGeometry x="479" y="475" width="154" height="35" as="geometry" />
        </mxCell>
        <mxCell id="UK86mSe1ED0umMSQW7se-91" style="edgeStyle=orthogonalEdgeStyle;rounded=0;orthogonalLoop=1;jettySize=auto;html=1;entryX=0.5;entryY=0;entryDx=0;entryDy=0;" edge="1" parent="1" source="UK86mSe1ED0umMSQW7se-83" target="UK86mSe1ED0umMSQW7se-88">
          <mxGeometry relative="1" as="geometry" />
        </mxCell>
        <mxCell id="UK86mSe1ED0umMSQW7se-92" style="edgeStyle=orthogonalEdgeStyle;rounded=0;orthogonalLoop=1;jettySize=auto;html=1;entryX=0.5;entryY=0;entryDx=0;entryDy=0;" edge="1" parent="1" source="UK86mSe1ED0umMSQW7se-83" target="UK86mSe1ED0umMSQW7se-85">
          <mxGeometry relative="1" as="geometry" />
        </mxCell>
        <mxCell id="UK86mSe1ED0umMSQW7se-83" value="Volg persoon" style="whiteSpace=wrap;html=1;rounded=1;" vertex="1" parent="1">
          <mxGeometry x="-429" y="130" width="154" height="35" as="geometry" />
        </mxCell>
        <mxCell id="UK86mSe1ED0umMSQW7se-85" value="Detecteer persoon" style="whiteSpace=wrap;html=1;rounded=1;" vertex="1" parent="1">
          <mxGeometry x="-539" y="230" width="154" height="35" as="geometry" />
        </mxCell>
        <mxCell id="UK86mSe1ED0umMSQW7se-88" value="Detecteer obstakels" style="whiteSpace=wrap;html=1;rounded=1;" vertex="1" parent="1">
          <mxGeometry x="-329" y="230" width="154" height="35" as="geometry" />
        </mxCell>
      </root>
    </mxGraphModel>
  </diagram>
</mxfile>
